<?xml version="1.0" encoding="utf-8"?>
<!-- Generator: Adobe Illustrator 26.0.1, SVG Export Plug-In . SVG Version: 6.00 Build 0)  -->
<svg version="1.1" id="Item_Bag" xmlns="http://www.w3.org/2000/svg" xmlns:xlink="http://www.w3.org/1999/xlink" x="0px" y="0px"
	 viewBox="0 0 24 24" style="enable-background:new 0 0 24 24;" xml:space="preserve">
<style type="text/css">
	.st0{fill:#FFFFFF;stroke:#231F20;stroke-width:0.5;stroke-linecap:round;stroke-linejoin:round;}
</style>
<g>
	<path class="st0" d="M9,7h6c0.2-0.5,0.5-1.1,0.7-1.5c0.4-0.9-0.8-0.7-0.8-0.7l-1.1,0C14.1,3.9,13.3,4,13.3,4S12.8,3.9,12,3.9
		c-0.8,0-1.3,0.1-1.3,0.1s-0.8,0-0.6,0.8l-1.1,0c0,0-1.2-0.2-0.8,0.7C8.5,5.9,8.8,6.6,9,7z"/>
	<path class="st0" d="M18.6,12.7c-0.4-1-1.9-2.8-1.9-2.8l-1.4-1.6h-3.2v3.3c0,0.3-0.3,0.6-0.6,0.6s-0.6-0.3-0.6-0.6v-3l-1.5,2.5
		c-0.1,0.2-0.3,0.3-0.5,0.3c-0.1,0-0.2,0-0.3-0.1c-0.3-0.2-0.4-0.5-0.2-0.8l1.2-2.1H8.7L7.3,9.9c0,0-1.5,1.8-1.9,2.8
		c-0.4,1-2.7,5.4,2.3,6.9c1.6,0.5,3.1,0.6,4.4,0.6c1.3,0,2.8-0.1,4.4-0.6C21.3,18.1,19,13.6,18.6,12.7z"/>
</g>
</svg>
